<svg id="Camada_1" data-name="Camada 1" xmlns="http://www.w3.org/2000/svg" viewBox="0 0 800 800"><defs><style>.cls-1{fill:#0e9fcd;}</style></defs><title>alvo</title><path class="cls-1" d="M555.41,395.22a179.54,179.54,0,0,1-1.57,23.4l.53-3.92A174.78,174.78,0,0,1,546,449.26c-.94,2.65-2,5.26-3,7.86s1.49-3.5.4-.95c-.28.64-.56,1.28-.84,1.92-.66,1.49-1.35,3-2.06,4.43a172,172,0,0,1-8.32,15.25c-3,4.92-6.28,9.67-9.76,14.27-1.66,2.19,2.31-3,.62-.8l-1.29,1.62c-.86,1.08-1.75,2.14-2.64,3.19-1.92,2.29-3.92,4.51-6,6.69-3.92,4.2-8.08,8.18-12.4,12-2.08,1.82-4.2,3.58-6.36,5.3-.82.65-3,2.32.81-.61l-1.65,1.25c-1.29,1-2.6,1.91-3.91,2.84a172.61,172.61,0,0,1-17.06,10.6c-2.85,1.56-5.76,3-8.69,4.41-1.47.7-3,1.37-4.45,2-3.46,1.52,2.65-1.09.3-.12-.86.36-1.73.71-2.6,1a171.6,171.6,0,0,1-39.83,10.39l3.92-.53a176.77,176.77,0,0,1-46.79,0l3.92.53a174.81,174.81,0,0,1-34.57-8.41c-2.65-.94-5.26-2-7.86-3s3.5,1.49.95.4l-1.92-.84c-1.49-.66-3-1.35-4.43-2.06a172.42,172.42,0,0,1-29.51-18.08c-2.19-1.66,3,2.31.8.62l-1.62-1.29c-1.08-.86-2.14-1.75-3.19-2.64-2.29-1.92-4.51-3.92-6.69-6-4.2-3.92-8.18-8.08-12-12.4-1.82-2.08-3.58-4.2-5.3-6.36-.65-.82-2.32-3,.61.81l-1.25-1.65c-1-1.29-1.91-2.6-2.84-3.91A172.62,172.62,0,0,1,258.87,470c-1.56-2.85-3-5.76-4.41-8.69-.7-1.47-1.37-3-2-4.45-1.52-3.46,1.09,2.65.12.3-.36-.86-.71-1.73-1-2.6a171.58,171.58,0,0,1-10.39-39.83l.53,3.92a176.77,176.77,0,0,1,0-46.79l-.53,3.92a174.85,174.85,0,0,1,8.41-34.57c.94-2.65,2-5.26,3-7.86s-1.49,3.5-.4.95c.28-.64.56-1.28.84-1.92.66-1.49,1.35-3,2.06-4.43a172.42,172.42,0,0,1,18.08-29.51c1.66-2.19-2.31,3-.62.8l1.29-1.62c.86-1.08,1.75-2.14,2.64-3.19,1.92-2.29,3.92-4.51,6-6.69,3.92-4.2,8.08-8.18,12.4-12,2.08-1.82,4.21-3.58,6.36-5.3.82-.65,3-2.32-.81.61L302,269.8c1.29-1,2.6-1.91,3.91-2.84A172.57,172.57,0,0,1,323,256.35c2.85-1.56,5.76-3,8.69-4.41,1.47-.7,3-1.37,4.45-2,3.46-1.52-2.65,1.09-.3.12.86-.36,1.73-.71,2.6-1a171.58,171.58,0,0,1,39.83-10.39l-3.92.53a176.78,176.78,0,0,1,46.79,0l-3.92-.53A174.85,174.85,0,0,1,451.78,247c2.65.94,5.26,2,7.86,3s-3.5-1.49-.95-.4l1.92.84c1.49.66,3,1.35,4.43,2.06a172.44,172.44,0,0,1,29.51,18.08c2.19,1.66-3-2.31-.8-.62l1.62,1.29c1.08.86,2.14,1.75,3.19,2.64,2.29,1.92,4.51,3.92,6.69,6,4.2,3.92,8.18,8.08,12,12.4,1.82,2.08,3.58,4.2,5.3,6.36.66.82,2.32,3-.61-.81l1.25,1.65c1,1.29,1.91,2.6,2.84,3.91a172.62,172.62,0,0,1,10.6,17.06c1.56,2.85,3,5.76,4.41,8.69.7,1.47,1.37,3,2,4.45,1.52,3.46-1.09-2.65-.12-.3.36.86.71,1.73,1,2.6a171.57,171.57,0,0,1,10.39,39.83l-.53-3.92a179.79,179.79,0,0,1,1.57,23.4,14.75,14.75,0,1,0,29.51,0A187.16,187.16,0,0,0,258.3,270.4C224.53,308.3,207,359.25,211.19,409.95c4.12,49.93,28.16,97.29,67,129.2C317.49,571.47,369,587.36,419.7,581a190,190,0,0,0,72.51-24.17c21.82-12.73,40.33-29.9,55.6-49.91,24.25-31.76,37-71.88,37.1-111.71a14.75,14.75,0,1,0-29.51,0Z"/><path class="cls-1" d="M200.27,407.86H284a12.63,12.63,0,0,0,0-25.27H200.27a12.63,12.63,0,1,0,0,25.27Z"/><path class="cls-1" d="M499.14,407.86h83.72a12.63,12.63,0,1,0,0-25.27H499.14a12.63,12.63,0,0,0,0,25.27Z"/><path class="cls-1" d="M410.38,585.43V501.72a12.63,12.63,0,1,0-25.27,0v83.72a12.63,12.63,0,1,0,25.27,0Z"/><path class="cls-1" d="M410.38,286.56V202.84a12.63,12.63,0,1,0-25.27,0v83.72a12.63,12.63,0,1,0,25.27,0Z"/><path class="cls-1" d="M428,393.64a54.41,54.41,0,0,1-.4,6.24l.45-3.36a52.72,52.72,0,0,1-1.48,7.17c-.32,1.16-.71,2.3-1.12,3.43-.2.56-.43,1.12-.65,1.67,1.64-4,.48-1.19.05-.3a48.65,48.65,0,0,1-3.9,6.63c-.34.48-.69,1-1,1.43,2.44-3.28,1.09-1.42.51-.71-.87,1.06-1.81,2.07-2.77,3s-1.69,1.64-2.57,2.42c-.44.39-.89.76-1.35,1.14-1.65,1.36,2.8-2.06.22-.19a48.73,48.73,0,0,1-6.58,4c-.53.27-1.07.52-1.61.77-2.15,1,3-1.23.82-.34-1.3.53-2.63,1-4,1.38a48.38,48.38,0,0,1-7.75,1.65l3.36-.45a51.54,51.54,0,0,1-12.49,0l3.36.45a52.75,52.75,0,0,1-7.17-1.48c-1.16-.32-2.3-.71-3.43-1.12-.56-.2-1.12-.43-1.67-.65,4,1.64,1.19.48.3.05a48.6,48.6,0,0,1-6.63-3.9c-.49-.34-1-.69-1.43-1,3.28,2.44,1.42,1.09.71.51-1.06-.87-2.07-1.81-3-2.77s-1.64-1.69-2.42-2.57c-.39-.44-.76-.89-1.14-1.35-1.36-1.65,2.06,2.8.19.22a48.79,48.79,0,0,1-4-6.58c-.27-.53-.52-1.07-.77-1.61-1-2.15,1.23,3,.34.82-.53-1.3-1-2.63-1.38-4a48.42,48.42,0,0,1-1.65-7.76l.45,3.36a51.54,51.54,0,0,1,0-12.49l-.45,3.36a52.74,52.74,0,0,1,1.48-7.17c.32-1.16.71-2.3,1.12-3.43.2-.56.43-1.12.65-1.67-1.64,4-.48,1.19-.05.3a48.6,48.6,0,0,1,3.9-6.63c.34-.49.69-1,1-1.43-2.44,3.28-1.09,1.42-.51.71.87-1.06,1.81-2.07,2.77-3s1.69-1.64,2.57-2.42c.44-.39.89-.76,1.35-1.14,1.65-1.36-2.8,2.06-.22.19a48.71,48.71,0,0,1,6.58-4c.53-.27,1.07-.52,1.61-.77,2.15-1-3,1.23-.82.34,1.3-.53,2.63-1,4-1.38a48.44,48.44,0,0,1,7.75-1.65l-3.36.45a51.54,51.54,0,0,1,12.49,0l-3.36-.45A52.72,52.72,0,0,1,402,359c1.16.32,2.3.71,3.43,1.12.56.2,1.12.43,1.67.65-4-1.64-1.19-.48-.3-.05a48.6,48.6,0,0,1,6.63,3.9c.49.34,1,.69,1.43,1-3.28-2.44-1.42-1.09-.71-.51,1.06.87,2.07,1.81,3,2.77s1.64,1.69,2.42,2.57c.39.44.76.89,1.14,1.35,1.36,1.65-2.06-2.8-.19-.22a48.71,48.71,0,0,1,4,6.58c.27.53.52,1.07.77,1.61,1,2.15-1.23-3-.34-.82.53,1.3,1,2.63,1.38,4a48.38,48.38,0,0,1,1.65,7.75l-.45-3.36a54.49,54.49,0,0,1,.4,6.24,12.63,12.63,0,0,0,25.27,0,61.5,61.5,0,0,0-10.16-33.76,63.4,63.4,0,0,0-28.7-23.19c-22.32-9.36-49.07-3.09-66,13.83A60.68,60.68,0,0,0,332,381a63.26,63.26,0,0,0,4.27,38.09c9.52,21.94,32.65,36,56.32,35.83a61.29,61.29,0,0,0,60.65-61.28,12.63,12.63,0,0,0-25.27,0Z"/></svg>